<?xml version="1.0" encoding="UTF-8" standalone="no"?>
<!DOCTYPE svg PUBLIC "-//W3C//DTD SVG 1.1//EN" "http://www.w3.org/Graphics/SVG/1.1/DTD/svg11.dtd">
<!-- 由 Microsoft Visio, SVG Export 生成 Reaction1.svg Page-1 -->
<svg xmlns="http://www.w3.org/2000/svg" xmlns:xlink="http://www.w3.org/1999/xlink" xmlns:ev="http://www.w3.org/2001/xml-events"
		xmlns:v="http://schemas.microsoft.com/visio/2003/SVGExtensions/" width="4.41998in" height="3.59617in"
		viewBox="0 0 318.238 258.924" xml:space="preserve" color-interpolation-filters="sRGB" class="st21">
	<v:documentProperties v:langID="2052" v:metric="true" v:viewMarkup="false">
		<v:userDefs>
			<v:ud v:nameU="msvNoAutoConnect" v:val="VT0(1):26"/>
		</v:userDefs>
	</v:documentProperties>

	<style type="text/css">
	<![CDATA[
		.st1 {fill:#ff00ff;fill-opacity:0;stroke:#000000;stroke-linecap:round;stroke-linejoin:round;stroke-opacity:0;stroke-width:0.72}
		.st2 {fill:url(#grad0-7)}
		.st3 {stroke:#ffffff;stroke-linecap:round;stroke-linejoin:round;stroke-width:0.36}
		.st4 {fill:url(#grad11-12)}
		.st5 {fill:url(#grad12-19);stroke:#ffffff;stroke-linecap:round;stroke-linejoin:round;stroke-width:0.36}
		.st6 {stroke:#000000;stroke-linecap:round;stroke-linejoin:round;stroke-width:1}
		.st7 {fill:url(#grad12-28);stroke:#000000;stroke-linecap:round;stroke-linejoin:round;stroke-width:0.36}
		.st8 {stroke:#000000;stroke-linecap:round;stroke-linejoin:round;stroke-width:0.6}
		.st9 {fill:#000000;stroke:#000000;stroke-linecap:round;stroke-linejoin:round;stroke-width:0.36}
		.st10 {fill:url(#grad8-44);stroke:#ffffff;stroke-linecap:round;stroke-linejoin:round;stroke-width:0.12}
		.st11 {fill:url(#grad10-49);stroke:none;stroke-linecap:round;stroke-linejoin:round;stroke-width:0.12}
		.st12 {fill:#000000;stroke:none;stroke-linecap:round;stroke-linejoin:round;stroke-width:0.24}
		.st13 {stroke:#000000;stroke-linecap:round;stroke-linejoin:round;stroke-width:0.36}
		.st14 {fill:url(#grad0-67);stroke:#4e8ec2;stroke-linecap:round;stroke-linejoin:round;stroke-width:0.72}
		.st15 {fill:url(#grad0-71);stroke:#4e8ec2;stroke-linecap:round;stroke-linejoin:round;stroke-width:0.24}
		.st16 {marker-start:url(#mrkr13-80);stroke:#000000;stroke-linecap:round;stroke-linejoin:round;stroke-width:2.25}
		.st17 {fill:#000000;fill-opacity:1;stroke:#000000;stroke-opacity:1;stroke-width:0.47169811320755}
		.st18 {fill:none;stroke:none;stroke-linecap:round;stroke-linejoin:round;stroke-width:0.75}
		.st19 {fill:#000000;font-family:宋体;font-size:3em;font-weight:bold}
		.st20 {marker-end:url(#mrkr13-89);stroke:#000000;stroke-linecap:round;stroke-linejoin:round;stroke-width:2.25}
		.st21 {fill:none;fill-rule:evenodd;font-size:12px;overflow:visible;stroke-linecap:square;stroke-miterlimit:3}
	]]>
	</style>

	<defs id="Patterns_And_Gradients">
		<linearGradient id="grad0-7" x1="0" y1="0" x2="1" y2="0" gradientTransform="rotate(270 0.5 0.5)">
			<stop offset="0" stop-color="#ffffff" stop-opacity="1"/>
			<stop offset="1" stop-color="#e1d8c1" stop-opacity="1"/>
		</linearGradient>
		<pattern id="grad11-12" x="0" y="0" width="1" height="1" patternContentUnits="objectBoundingBox">
			<path d="M 0 1 L 0 0 L 1 0 z" style="fill:url(#grad0-13)"/>
			<path d="M 0 1 L 1 1 L 1 0 z" style="fill:url(#grad0-14)"/>
		</pattern>
		<linearGradient id="grad0-13" x1="0" y1="0" x2="1" y2="0" gradientTransform="rotate(180 0.5 0.5)">
			<stop offset="0" stop-color="#ffffff" stop-opacity="1"/>
			<stop offset="1" stop-color="#c9ba96" stop-opacity="1"/>
		</linearGradient>
		<linearGradient id="grad0-14" x1="0" y1="0" x2="1" y2="0" gradientTransform="rotate(90 0.5 0.5)">
			<stop offset="0" stop-color="#ffffff" stop-opacity="1"/>
			<stop offset="1" stop-color="#c9ba96" stop-opacity="1"/>
		</linearGradient>
		<pattern id="grad12-19" x="0" y="0" width="1" height="1" patternContentUnits="objectBoundingBox">
			<path d="M 0 0 L 0 1 L 1 1 z" style="fill:url(#grad0-20)"/>
			<path d="M 0 0 L 1 0 L 1 1 z" style="fill:url(#grad0-21)"/>
		</pattern>
		<linearGradient id="grad0-20" x1="0" y1="0" x2="1" y2="0" gradientTransform="rotate(90 0.5 0.5)">
			<stop offset="0" stop-color="#ffffff" stop-opacity="1"/>
			<stop offset="1" stop-color="#b6a06d" stop-opacity="1"/>
		</linearGradient>
		<linearGradient id="grad0-21" x1="0" y1="0" x2="1" y2="0" gradientTransform="rotate(360 0.5 0.5)">
			<stop offset="0" stop-color="#ffffff" stop-opacity="1"/>
			<stop offset="1" stop-color="#b6a06d" stop-opacity="1"/>
		</linearGradient>
		<pattern id="grad12-28" x="0" y="0" width="1" height="1" patternContentUnits="objectBoundingBox">
			<path d="M 0 0 L 0 1 L 1 1 z" style="fill:url(#grad0-29)"/>
			<path d="M 0 0 L 1 0 L 1 1 z" style="fill:url(#grad0-30)"/>
		</pattern>
		<linearGradient id="grad0-29" x1="0" y1="0" x2="1" y2="0" gradientTransform="rotate(90 0.5 0.5)">
			<stop offset="0" stop-color="#ffffff" stop-opacity="1"/>
			<stop offset="1" stop-color="#339966" stop-opacity="1"/>
		</linearGradient>
		<linearGradient id="grad0-30" x1="0" y1="0" x2="1" y2="0" gradientTransform="rotate(360 0.5 0.5)">
			<stop offset="0" stop-color="#ffffff" stop-opacity="1"/>
			<stop offset="1" stop-color="#339966" stop-opacity="1"/>
		</linearGradient>
		<linearGradient id="grad0-34" x1="0" y1="0" x2="1" y2="0" gradientTransform="rotate(270 0.5 0.5)">
			<stop offset="0" stop-color="#ffffff" stop-opacity="1"/>
			<stop offset="1" stop-color="#e7e4cd" stop-opacity="1"/>
		</linearGradient>
		<pattern id="grad8-44" x="0" y="0" width="1" height="1" patternContentUnits="objectBoundingBox">
			<path d="M 0 0 L 1 0 L 1 1 z" style="fill:url(#grad0-34)"/>
			<path d="M 0 0 L 0 1 L 1 1 z" style="fill:url(#grad0-45)"/>
		</pattern>
		<linearGradient id="grad0-45" x1="0" y1="0" x2="1" y2="0" gradientTransform="rotate(180 0.5 0.5)">
			<stop offset="0" stop-color="#ffffff" stop-opacity="1"/>
			<stop offset="1" stop-color="#e7e4cd" stop-opacity="1"/>
		</linearGradient>
		<pattern id="grad10-49" x="0" y="0" width="1" height="1" patternContentUnits="objectBoundingBox">
			<path d="M 0.5 0.5 L 0 0 L 0 1 z" style="fill:url(#grad0-50)"/>
			<path d="M 0.5 0.5 L 1 0 L 1 1 z" style="fill:url(#grad0-51)"/>
			<path d="M 0.5 0.5 L 0 0 L 1 0 z" style="fill:url(#grad0-52)"/>
			<path d="M 0.5 0.5 L 0 1 L 1 1 z" style="fill:url(#grad0-53)"/>
		</pattern>
		<linearGradient id="grad0-50" x1="0" y1="0" x2="1" y2="0" gradientTransform="rotate(180 0.5 0.5)">
			<stop offset="0" stop-color="#000000" stop-opacity="0.4"/>
			<stop offset="1" stop-color="#e7e4cd" stop-opacity="0.4"/>
		</linearGradient>
		<linearGradient id="grad0-51" x1="0" y1="0" x2="1" y2="0" gradientTransform="rotate(360 0.5 0.5)">
			<stop offset="0" stop-color="#000000" stop-opacity="0.4"/>
			<stop offset="1" stop-color="#e7e4cd" stop-opacity="0.4"/>
		</linearGradient>
		<linearGradient id="grad0-52" x1="0" y1="0" x2="1" y2="0" gradientTransform="rotate(270 0.5 0.5)">
			<stop offset="0" stop-color="#000000" stop-opacity="0.4"/>
			<stop offset="1" stop-color="#e7e4cd" stop-opacity="0.4"/>
		</linearGradient>
		<linearGradient id="grad0-53" x1="0" y1="0" x2="1" y2="0" gradientTransform="rotate(90 0.5 0.5)">
			<stop offset="0" stop-color="#000000" stop-opacity="0.4"/>
			<stop offset="1" stop-color="#e7e4cd" stop-opacity="0.4"/>
		</linearGradient>
		<linearGradient id="grad0-67" x1="0" y1="0" x2="1" y2="0" gradientTransform="rotate(270 0.5 0.5)">
			<stop offset="0" stop-color="#ffffff" stop-opacity="1"/>
			<stop offset="1" stop-color="#4e8ec2" stop-opacity="1"/>
		</linearGradient>
		<linearGradient id="grad0-71" x1="0" y1="0" x2="1" y2="0" gradientTransform="rotate(180 0.5 0.5)">
			<stop offset="0.01" stop-color="#4e8ec2" stop-opacity="1"/>
			<stop offset="0.5" stop-color="#ffffff" stop-opacity="1"/>
			<stop offset="1" stop-color="#4e8ec2" stop-opacity="1"/>
		</linearGradient>
	</defs>
	<defs id="Markers">
		<g id="lend13">
			<path d="M 3 1 L 0 0 L 3 -1 L 3 1 " style="stroke:none"/>
		</g>
		<marker id="mrkr13-80" class="st17" v:arrowType="13" v:arrowSize="2" v:setback="6.2" refX="6.2" orient="auto"
				markerUnits="strokeWidth" overflow="visible">
			<use xlink:href="#lend13" transform="scale(2.12) "/>
		</marker>
		<marker id="mrkr13-89" class="st17" v:arrowType="13" v:arrowSize="2" v:setback="6.36" refX="-6.36" orient="auto"
				markerUnits="strokeWidth" overflow="visible">
			<use xlink:href="#lend13" transform="scale(-2.12,-2.12) "/>
		</marker>
	</defs>
	<g v:mID="0" v:index="1" v:groupContext="foregroundPage">
		<title>页-1</title>
		<v:pageProperties v:drawingScale="0.0393701" v:pageScale="0.0393701" v:drawingUnits="24" v:shadowOffsetX="8.50394"
				v:shadowOffsetY="-8.50394"/>
		<v:layer v:name="连接线" v:index="0"/>
		<v:layer v:name="常用图标" v:index="1"/>
		<g id="group1106-1" transform="translate(228.317,-75.1052)" v:mID="1106" v:groupContext="group">
			<v:custProps>
				<v:cp v:nameU="Manufacturer" v:lbl="制造商" v:type="0" v:sortKey="Equipment" v:invis="false" v:langID="2052"/>
				<v:cp v:nameU="ProductNumber" v:lbl="产品编号" v:type="0" v:sortKey="Equipment" v:invis="false" v:langID="2052"/>
				<v:cp v:nameU="PartNumber" v:lbl="部件号" v:type="0" v:sortKey="Equipment" v:invis="false" v:langID="2052"/>
				<v:cp v:nameU="ProductDescription" v:lbl="产品说明" v:type="0" v:sortKey="Equipment" v:invis="false" v:langID="2052"/>
				<v:cp v:nameU="AssetNumber" v:lbl="资产号" v:type="0" v:sortKey="Asset" v:invis="false" v:langID="2052"/>
				<v:cp v:nameU="SerialNumber" v:lbl="序列号" v:type="0" v:sortKey="Asset" v:invis="false" v:langID="2052"/>
				<v:cp v:nameU="Location" v:lbl="位置" v:type="0" v:sortKey="Asset" v:invis="false" v:langID="2052"/>
				<v:cp v:nameU="Building" v:lbl="建筑物" v:type="0" v:sortKey="Asset" v:invis="false" v:langID="2052"/>
				<v:cp v:nameU="Room" v:lbl="房间" v:type="0" v:sortKey="Asset" v:invis="false" v:langID="2052"/>
				<v:cp v:nameU="Department" v:lbl="部门" v:langID="2052"/>
				<v:cp v:nameU="ShapeClass" v:lbl="ShapeClass" v:type="0" v:invis="true" v:ask="false" v:langID="2052"
						v:val="VT4(设备)"/>
				<v:cp v:nameU="ShapeType" v:lbl="ShapeType" v:type="0" v:invis="true" v:ask="false" v:langID="2052"
						v:val="VT4(服务器)"/>
				<v:cp v:nameU="SubShapeType" v:lbl="SubShapeType" v:type="0" v:invis="true" v:ask="false" v:langID="2052"
						v:val="VT4(数据库)"/>
				<v:cp v:nameU="NetworkName" v:lbl="网络名称" v:type="0" v:sortKey="Network" v:invis="false" v:ask="false"
						v:langID="2052"/>
				<v:cp v:nameU="IPAddress" v:lbl="IP 地址" v:type="0" v:sortKey="Network" v:invis="false" v:ask="false"
						v:langID="2052"/>
				<v:cp v:nameU="SubnetMask" v:lbl="子网掩码" v:type="0" v:sortKey="Network" v:invis="false" v:ask="false"
						v:langID="2052"/>
				<v:cp v:nameU="AdminInterface" v:lbl="管理接口" v:type="0" v:sortKey="Network" v:invis="false" v:ask="false"
						v:langID="2052"/>
				<v:cp v:nameU="NumberofPorts" v:lbl="端口数目" v:type="0" v:sortKey="Network" v:invis="false" v:ask="false"
						v:langID="2052"/>
				<v:cp v:nameU="MACAddress" v:lbl="MAC 地址" v:type="0" v:sortKey="Network" v:invis="false" v:ask="false"
						v:langID="2052"/>
				<v:cp v:nameU="CommunityString" v:lbl="团体字符串" v:type="0" v:sortKey="Network" v:invis="false" v:ask="false"
						v:langID="2052"/>
				<v:cp v:nameU="NetworkDescription" v:lbl="网络说明" v:type="0" v:sortKey="Network" v:invis="false" v:ask="false"
						v:langID="2052"/>
				<v:cp v:nameU="HardDriveSize" v:lbl="硬盘容量" v:type="0" v:sortKey="Workstation" v:invis="false" v:ask="false"
						v:langID="2052"/>
				<v:cp v:nameU="CPU" v:lbl="CPU" v:type="0" v:sortKey="Workstation" v:invis="false" v:ask="false" v:langID="2052"/>
				<v:cp v:nameU="Memory" v:lbl="内存" v:type="0" v:sortKey="Workstation" v:invis="false" v:ask="false" v:langID="2052"/>
				<v:cp v:nameU="OperatingSystem" v:lbl="操作系统" v:type="0" v:sortKey="Workstation" v:invis="false" v:ask="false"
						v:langID="2052"/>
			</v:custProps>
			<v:userDefs>
				<v:ud v:nameU="HasText" v:val="VT0(0):5"/>
				<v:ud v:nameU="SolSH" v:val="VT15({BF0433D9-CD73-4EB5-8390-8653BE590246}):41"/>
				<v:ud v:nameU="ShapeClass" v:val="VT0(5):26"/>
				<v:ud v:nameU="ShapeType" v:val="VT0(24):26"/>
				<v:ud v:nameU="SubShapeType" v:val="VT0(16):26"/>
				<v:ud v:nameU="visLegendShape" v:val="VT0(2):26"/>
				<v:ud v:nameU="visVersion" v:prompt="" v:val="VT0(15):26"/>
			</v:userDefs>
			<title>数据库服务器</title>
			<g id="shape1107-2" v:mID="1107" v:groupContext="shape">
				<title>工作表.1107</title>
				<path d="M68.97 238.22 L80.87 231.81 L80.87 163.26 L49.77 146.61 L0 173.72 L0.02 243.35 A52.3607 48.8979 -180 0 0
							 30.71 258.92 L41.49 253.03 A13.8938 6.39791 -180 0 0 68.97 252.06 L68.97 238.22 ZM13.81 184.56 A54.0373
							 50.4637 -180 0 0 30.71 190.57 A53.4338 49.9 0 0 1 13.81 184.56 Z" class="st1"/>
			</g>
			<g id="shape1108-4" v:mID="1108" v:groupContext="shape" transform="translate(0,-68.3566)">
				<title>工作表.1108</title>
				<path d="M30.69 258.92 L80.87 231.62 L49.77 214.97 L0 242.08 A54.0373 50.4637 -180 0 0 30.71 258.92 L30.69 258.92
							 Z" class="st2"/>
				<path d="M30.69 258.92 L80.87 231.62 L49.77 214.97 L0 242.08 A54.0373 50.4637 -180 0 0 30.71 258.92" class="st3"/>
			</g>
			<g id="shape1109-9" v:mID="1109" v:groupContext="shape" transform="translate(0.0183751,-5.68434E-13)">
				<title>工作表.1109</title>
				<path d="M30.69 190.57 A53.4338 49.9 0 0 1 -0 173.64 L0 243.35 A52.3607 48.8979 -180 0 0 30.69 258.92 L30.67 190.57
							 L30.69 190.57 Z" class="st4"/>
				<path d="M30.69 190.57 A53.4338 49.9 0 0 1 -0 173.64 L0 243.35 A52.3607 48.8979 -180 0 0 30.69 258.92 L30.67 190.57"
						class="st3"/>
			</g>
			<g id="shape1110-16" v:mID="1110" v:groupContext="shape" transform="translate(30.6884,-0.0772579)">
				<title>工作表.1110</title>
				<path d="M0 190.64 L0 258.92 L50.18 231.89 L50.18 163.34 L0 190.64 Z" class="st5"/>
			</g>
			<g id="shape1111-22" v:mID="1111" v:groupContext="shape" transform="translate(0,-0.00247585)">
				<title>工作表.1111</title>
				<path d="M80.87 163.26 L49.77 146.61 L0 173.72 L0.02 243.35 A52.3607 48.8979 -180 0 0 30.71 258.92 L80.87 231.81
							 L80.87 163.26" class="st6"/>
			</g>
			<g id="shape1112-25" v:mID="1112" v:groupContext="shape" transform="translate(-75.5491,-20.4913) rotate(-20)">
				<title>工作表.1112</title>
				<ellipse cx="2.349" cy="255.725" rx="2.349" ry="3.19861" class="st7"/>
			</g>
			<g id="shape1113-31" v:mID="1113" v:groupContext="shape" transform="translate(4.9765,-9.87818)">
				<title>工作表.1113</title>
				<path d="M0 239.95 A59.9422 54.7471 -96.44 0 0 20.74 250.6" class="st8"/>
				<path d="M0 244.11 A59.9422 54.7471 -96.44 0 0 20.74 254.76" class="st8"/>
				<path d="M-0 248.27 A59.9422 54.7471 -96.44 0 0 20.74 258.92" class="st8"/>
			</g>
			<g id="group1114-38" transform="translate(4.14709,-48.4128)" v:mID="1114" v:groupContext="group">
				<title>工作表.1114</title>
				<g id="shape1115-39" v:mID="1115" v:groupContext="shape" transform="translate(0,-11.2047)">
					<title>工作表.1115</title>
					<path d="M0.74 248.27 A52.2992 48.8405 -180 0 0 21.47 258.92 a1.06269 0.992412 -180 0 0 3.55271E-15 -1.93641
								 A50.8763 47.5117 0 0 1 1.15 246.65 a0.688467 0.642936 -180 0 0 -1.14938 0.546572 A1.50048 1.40125
								 -180 0 0 0.74 248.27 Z" class="st9"/>
				</g>
				<g id="shape1116-41" v:mID="1116" v:groupContext="shape" transform="translate(6.59454,-13.6456)">
					<title>工作表.1116</title>
					<path d="M6.38 258.84 A7.77098 4.73067 -90.9 0 0 0.16 255.75 A5.11292 2.54913 -180 0 0 6.38 258.84 Z"
							class="st10"/>
				</g>
				<g id="shape1117-46" v:mID="1117" v:groupContext="shape" transform="translate(0.829417,-0.0968206)">
					<title>工作表.1117</title>
					<path d="M0 242.85 L0 248.27 A56.2582 52.5376 -180 0 0 20.74 258.92 L20.74 253.5 A58.0994 54.2571 0 0 1 0 242.85
								 Z" class="st11"/>
				</g>
				<g id="shape1118-54" v:mID="1118" v:groupContext="shape" transform="translate(0.829417,-3.09826)">
					<title>工作表.1118</title>
					<path d="M-0 248.27 A50.92 47.5525 -180 0 0 20.74 258.92 L20.74 257.57 A56.2808 52.5588 0 0 1 0 246.92 L0 248.27
								 Z" class="st12"/>
				</g>
				<g id="shape1119-56" v:mID="1119" v:groupContext="shape" transform="translate(0.829417,-0.193641)">
					<title>工作表.1119</title>
					<path d="M0 242.85 L0 248.27 A56.2582 52.5376 -180 0 0 20.74 258.92" class="st3"/>
				</g>
				<g id="shape1120-59" v:mID="1120" v:groupContext="shape" transform="translate(0.829417,1.7053E-13)">
					<title>工作表.1120</title>
					<path d="M20.74 258.92 L20.74 253.5 A58.0994 54.2571 0 0 1 0 242.85" class="st13"/>
				</g>
			</g>
			<g id="group1121-63" transform="translate(40.4341,0)" v:mID="1121" v:groupContext="group">
				<v:userDefs>
					<v:ud v:nameU="IsVisable" v:val="VT0(1):5"/>
				</v:userDefs>
				<title>工作表.1121</title>
				<g id="shape1122-64" v:mID="1122" v:groupContext="shape" transform="translate(0.772412,-25.3619)">
					<title>工作表.1122</title>
					<ellipse cx="13.8866" cy="252.584" rx="13.8866" ry="6.34047" class="st14"/>
				</g>
				<g id="shape1123-68" v:mID="1123" v:groupContext="shape" transform="translate(0.771235,-0.792768)">
					<title>工作表.1123</title>
					<path d="M0 228.01 L0 252.75 A13.8938 6.39791 -180 0 0 27.76 252.86 L27.77 228.01 A13.8872 6.39487 0 1 1 0 228.01
								 Z" class="st15"/>
				</g>
				<g id="shape1124-72" v:mID="1124" v:groupContext="shape" transform="translate(0.839578,-0.871919)">
					<title>工作表.1124</title>
					<path d="M27.54 228.01 A13.7691 6.34047 -180 1 0 0 228.07 L0 252.75 A13.7756 6.39791 -180 0 0 27.53 252.86 L27.54
								 228.01" class="st6"/>
				</g>
			</g>
		</g>
		<g id="shape1155-75" v:mID="1155" v:groupContext="shape" v:layerMember="0" transform="translate(260.82,0)">
			<title>动态连接线.841</title>
			<path d="M7.09 244.97 L7.09 244.61 L7.09 200.6" class="st16"/>
		</g>
		<g id="shape1156-81" v:mID="1156" v:groupContext="shape" transform="translate(-3.96845,-98.4864)">
			<title>工作表.1156</title>
			<desc>发送随机数</desc>
			<v:textBlock v:margins="rect(4,4,4,4)" v:tabSpace="42.5197"/>
			<v:textRect cx="99.2126" cy="230.214" width="198.43" height="57.4191"/>
			<rect x="0" y="201.505" width="198.425" height="57.4191" class="st18"/>
			<text x="8.86" y="242.11" class="st19" v:langID="2052"><v:paragraph v:horizAlign="1"/><v:tabList/>发送随机数</text>		</g>
		<g id="shape1159-84" v:mID="1159" v:groupContext="shape" v:layerMember="0" transform="translate(262.608,-196.795)">
			<title>动态连接线.850</title>
			<path d="M7.09 258.92 L7.09 214.91" class="st20"/>
		</g>
	</g>
</svg>
