<?xml version="1.0" encoding="UTF-8" standalone="no"?>
<!DOCTYPE svg PUBLIC "-//W3C//DTD SVG 1.1//EN" "http://www.w3.org/Graphics/SVG/1.1/DTD/svg11.dtd">
<!-- 由 Microsoft Visio, SVG Export 生成 Reaction2.svg Page-1 -->
<svg xmlns="http://www.w3.org/2000/svg" xmlns:xlink="http://www.w3.org/1999/xlink" xmlns:ev="http://www.w3.org/2001/xml-events"
		xmlns:v="http://schemas.microsoft.com/visio/2003/SVGExtensions/" width="4.45206in" height="3.67505in"
		viewBox="0 0 320.548 264.604" xml:space="preserve" color-interpolation-filters="sRGB" class="st31">
	<v:documentProperties v:langID="2052" v:metric="true" v:viewMarkup="false">
		<v:userDefs>
			<v:ud v:nameU="msvNoAutoConnect" v:val="VT0(1):26"/>
		</v:userDefs>
	</v:documentProperties>

	<style type="text/css">
	<![CDATA[
		.st1 {fill:#ff00ff;fill-opacity:0;stroke:#000000;stroke-linecap:round;stroke-linejoin:round;stroke-opacity:0;stroke-width:0.72}
		.st2 {fill:url(#grad0-7)}
		.st3 {stroke:#ffffff;stroke-linecap:round;stroke-linejoin:round;stroke-width:0.36}
		.st4 {fill:url(#grad11-12)}
		.st5 {fill:url(#grad12-19);stroke:#ffffff;stroke-linecap:round;stroke-linejoin:round;stroke-width:0.36}
		.st6 {stroke:#000000;stroke-linecap:round;stroke-linejoin:round;stroke-width:1}
		.st7 {fill:url(#grad12-28);stroke:#000000;stroke-linecap:round;stroke-linejoin:round;stroke-width:0.36}
		.st8 {stroke:#000000;stroke-linecap:round;stroke-linejoin:round;stroke-width:0.6}
		.st9 {fill:#000000;stroke:#000000;stroke-linecap:round;stroke-linejoin:round;stroke-width:0.36}
		.st10 {fill:url(#grad8-44);stroke:#ffffff;stroke-linecap:round;stroke-linejoin:round;stroke-width:0.12}
		.st11 {fill:url(#grad10-49);stroke:none;stroke-linecap:round;stroke-linejoin:round;stroke-width:0.12}
		.st12 {fill:#000000;stroke:none;stroke-linecap:round;stroke-linejoin:round;stroke-width:0.24}
		.st13 {stroke:#000000;stroke-linecap:round;stroke-linejoin:round;stroke-width:0.36}
		.st14 {fill:none;stroke:none;stroke-linecap:round;stroke-linejoin:round;stroke-width:0.75}
		.st15 {fill:#000000;font-family:宋体;font-size:3em;font-weight:bold}
		.st16 {font-size:1em}
		.st17 {marker-start:url(#mrkr13-116);stroke:#000000;stroke-linecap:round;stroke-linejoin:round;stroke-width:2.25}
		.st18 {fill:#000000;fill-opacity:1;stroke:#000000;stroke-opacity:1;stroke-width:0.47169811320755}
		.st19 {fill:#000000;fill-opacity:0;stroke:none;stroke-linecap:butt;stroke-width:0.75}
		.st20 {fill:url(#grad7-123);stroke:none;stroke-linecap:round;stroke-linejoin:round;stroke-width:0.75}
		.st21 {fill:url(#grad0-127);stroke:none;stroke-linecap:round;stroke-linejoin:round;stroke-width:0.75}
		.st22 {fill:url(#grad10-131);stroke:none;stroke-linecap:round;stroke-linejoin:round;stroke-width:0.75}
		.st23 {fill:url(#grad0-139)}
		.st24 {stroke:none;stroke-linecap:round;stroke-linejoin:round;stroke-width:0.75}
		.st25 {fill:url(#grad3-144)}
		.st26 {stroke:#996633;stroke-linecap:butt;stroke-width:0.375}
		.st27 {fill:none}
		.st28 {stroke:#295687;stroke-linecap:round;stroke-linejoin:round;stroke-width:0.375}
		.st29 {fill:none;stroke:#000000;stroke-linecap:round;stroke-linejoin:round;stroke-width:0.72}
		.st30 {marker-end:url(#mrkr13-156);stroke:#000000;stroke-linecap:round;stroke-linejoin:round;stroke-width:2.25}
		.st31 {fill:none;fill-rule:evenodd;font-size:12px;overflow:visible;stroke-linecap:square;stroke-miterlimit:3}
	]]>
	</style>

	<defs id="Patterns_And_Gradients">
		<linearGradient id="grad0-7" x1="0" y1="0" x2="1" y2="0" gradientTransform="rotate(270 0.5 0.5)">
			<stop offset="0" stop-color="#ffffff" stop-opacity="1"/>
			<stop offset="1" stop-color="#e1d8c1" stop-opacity="1"/>
		</linearGradient>
		<pattern id="grad11-12" x="0" y="0" width="1" height="1" patternContentUnits="objectBoundingBox">
			<path d="M 0 1 L 0 0 L 1 0 z" style="fill:url(#grad0-13)"/>
			<path d="M 0 1 L 1 1 L 1 0 z" style="fill:url(#grad0-14)"/>
		</pattern>
		<linearGradient id="grad0-13" x1="0" y1="0" x2="1" y2="0" gradientTransform="rotate(180 0.5 0.5)">
			<stop offset="0" stop-color="#ffffff" stop-opacity="1"/>
			<stop offset="1" stop-color="#c9ba96" stop-opacity="1"/>
		</linearGradient>
		<linearGradient id="grad0-14" x1="0" y1="0" x2="1" y2="0" gradientTransform="rotate(90 0.5 0.5)">
			<stop offset="0" stop-color="#ffffff" stop-opacity="1"/>
			<stop offset="1" stop-color="#c9ba96" stop-opacity="1"/>
		</linearGradient>
		<pattern id="grad12-19" x="0" y="0" width="1" height="1" patternContentUnits="objectBoundingBox">
			<path d="M 0 0 L 0 1 L 1 1 z" style="fill:url(#grad0-20)"/>
			<path d="M 0 0 L 1 0 L 1 1 z" style="fill:url(#grad0-21)"/>
		</pattern>
		<linearGradient id="grad0-20" x1="0" y1="0" x2="1" y2="0" gradientTransform="rotate(90 0.5 0.5)">
			<stop offset="0" stop-color="#ffffff" stop-opacity="1"/>
			<stop offset="1" stop-color="#b6a06d" stop-opacity="1"/>
		</linearGradient>
		<linearGradient id="grad0-21" x1="0" y1="0" x2="1" y2="0" gradientTransform="rotate(360 0.5 0.5)">
			<stop offset="0" stop-color="#ffffff" stop-opacity="1"/>
			<stop offset="1" stop-color="#b6a06d" stop-opacity="1"/>
		</linearGradient>
		<pattern id="grad12-28" x="0" y="0" width="1" height="1" patternContentUnits="objectBoundingBox">
			<path d="M 0 0 L 0 1 L 1 1 z" style="fill:url(#grad0-29)"/>
			<path d="M 0 0 L 1 0 L 1 1 z" style="fill:url(#grad0-30)"/>
		</pattern>
		<linearGradient id="grad0-29" x1="0" y1="0" x2="1" y2="0" gradientTransform="rotate(90 0.5 0.5)">
			<stop offset="0" stop-color="#ffffff" stop-opacity="1"/>
			<stop offset="1" stop-color="#339966" stop-opacity="1"/>
		</linearGradient>
		<linearGradient id="grad0-30" x1="0" y1="0" x2="1" y2="0" gradientTransform="rotate(360 0.5 0.5)">
			<stop offset="0" stop-color="#ffffff" stop-opacity="1"/>
			<stop offset="1" stop-color="#339966" stop-opacity="1"/>
		</linearGradient>
		<linearGradient id="grad0-34" x1="0" y1="0" x2="1" y2="0" gradientTransform="rotate(270 0.5 0.5)">
			<stop offset="0" stop-color="#ffffff" stop-opacity="1"/>
			<stop offset="1" stop-color="#e7e4cd" stop-opacity="1"/>
		</linearGradient>
		<pattern id="grad8-44" x="0" y="0" width="1" height="1" patternContentUnits="objectBoundingBox">
			<path d="M 0 0 L 1 0 L 1 1 z" style="fill:url(#grad0-34)"/>
			<path d="M 0 0 L 0 1 L 1 1 z" style="fill:url(#grad0-45)"/>
		</pattern>
		<linearGradient id="grad0-45" x1="0" y1="0" x2="1" y2="0" gradientTransform="rotate(180 0.5 0.5)">
			<stop offset="0" stop-color="#ffffff" stop-opacity="1"/>
			<stop offset="1" stop-color="#e7e4cd" stop-opacity="1"/>
		</linearGradient>
		<pattern id="grad10-49" x="0" y="0" width="1" height="1" patternContentUnits="objectBoundingBox">
			<path d="M 0.5 0.5 L 0 0 L 0 1 z" style="fill:url(#grad0-50)"/>
			<path d="M 0.5 0.5 L 1 0 L 1 1 z" style="fill:url(#grad0-51)"/>
			<path d="M 0.5 0.5 L 0 0 L 1 0 z" style="fill:url(#grad0-52)"/>
			<path d="M 0.5 0.5 L 0 1 L 1 1 z" style="fill:url(#grad0-53)"/>
		</pattern>
		<linearGradient id="grad0-50" x1="0" y1="0" x2="1" y2="0" gradientTransform="rotate(180 0.5 0.5)">
			<stop offset="0" stop-color="#000000" stop-opacity="0.4"/>
			<stop offset="1" stop-color="#e7e4cd" stop-opacity="0.4"/>
		</linearGradient>
		<linearGradient id="grad0-51" x1="0" y1="0" x2="1" y2="0" gradientTransform="rotate(360 0.5 0.5)">
			<stop offset="0" stop-color="#000000" stop-opacity="0.4"/>
			<stop offset="1" stop-color="#e7e4cd" stop-opacity="0.4"/>
		</linearGradient>
		<linearGradient id="grad0-52" x1="0" y1="0" x2="1" y2="0" gradientTransform="rotate(270 0.5 0.5)">
			<stop offset="0" stop-color="#000000" stop-opacity="0.4"/>
			<stop offset="1" stop-color="#e7e4cd" stop-opacity="0.4"/>
		</linearGradient>
		<linearGradient id="grad0-53" x1="0" y1="0" x2="1" y2="0" gradientTransform="rotate(90 0.5 0.5)">
			<stop offset="0" stop-color="#000000" stop-opacity="0.4"/>
			<stop offset="1" stop-color="#e7e4cd" stop-opacity="0.4"/>
		</linearGradient>
		<radialGradient id="grad7-123" cx="0" cy="0" r="1.4">
			<stop offset="0" stop-color="#e1f4f9" stop-opacity="1"/>
			<stop offset="1" stop-color="#7bb4d2" stop-opacity="1"/>
		</radialGradient>
		<linearGradient id="grad0-127" x1="0" y1="0" x2="1" y2="0" gradientTransform="rotate(0 0.5 0.5)">
			<stop offset="0" stop-color="#f7f3e8" stop-opacity="1"/>
			<stop offset="1" stop-color="#b7e4ee" stop-opacity="1"/>
		</linearGradient>
		<pattern id="grad10-131" x="0" y="0" width="1" height="1" patternContentUnits="objectBoundingBox">
			<path d="M 0.5 0.5 L 0 0 L 0 1 z" style="fill:url(#grad0-132)"/>
			<path d="M 0.5 0.5 L 1 0 L 1 1 z" style="fill:url(#grad0-133)"/>
			<path d="M 0.5 0.5 L 0 0 L 1 0 z" style="fill:url(#grad0-134)"/>
			<path d="M 0.5 0.5 L 0 1 L 1 1 z" style="fill:url(#grad0-135)"/>
		</pattern>
		<linearGradient id="grad0-132" x1="0" y1="0" x2="1" y2="0" gradientTransform="rotate(180 0.5 0.5)">
			<stop offset="0" stop-color="#b7e4ee" stop-opacity="1"/>
			<stop offset="1" stop-color="#7bb4d2" stop-opacity="1"/>
		</linearGradient>
		<linearGradient id="grad0-133" x1="0" y1="0" x2="1" y2="0" gradientTransform="rotate(360 0.5 0.5)">
			<stop offset="0" stop-color="#b7e4ee" stop-opacity="1"/>
			<stop offset="1" stop-color="#7bb4d2" stop-opacity="1"/>
		</linearGradient>
		<linearGradient id="grad0-134" x1="0" y1="0" x2="1" y2="0" gradientTransform="rotate(270 0.5 0.5)">
			<stop offset="0" stop-color="#b7e4ee" stop-opacity="1"/>
			<stop offset="1" stop-color="#7bb4d2" stop-opacity="1"/>
		</linearGradient>
		<linearGradient id="grad0-135" x1="0" y1="0" x2="1" y2="0" gradientTransform="rotate(90 0.5 0.5)">
			<stop offset="0" stop-color="#b7e4ee" stop-opacity="1"/>
			<stop offset="1" stop-color="#7bb4d2" stop-opacity="1"/>
		</linearGradient>
		<linearGradient id="grad0-139" x1="0" y1="0" x2="1" y2="0" gradientTransform="rotate(0 0.5 0.5)">
			<stop offset="0" stop-color="#7bb4d2" stop-opacity="1"/>
			<stop offset="1" stop-color="#658eb8" stop-opacity="1"/>
		</linearGradient>
		<radialGradient id="grad3-144" cx="0.5" cy="0.5" r="0.73">
			<stop offset="0" stop-color="#ffffff" stop-opacity="1"/>
			<stop offset="1" stop-color="#da8c36" stop-opacity="1"/>
		</radialGradient>
	</defs>
	<defs id="Markers">
		<g id="lend13">
			<path d="M 3 1 L 0 0 L 3 -1 L 3 1 " style="stroke:none"/>
		</g>
		<marker id="mrkr13-116" class="st18" v:arrowType="13" v:arrowSize="2" v:setback="6.2" refX="6.2" orient="auto"
				markerUnits="strokeWidth" overflow="visible">
			<use xlink:href="#lend13" transform="scale(2.12) "/>
		</marker>
		<marker id="mrkr13-156" class="st18" v:arrowType="13" v:arrowSize="2" v:setback="6.36" refX="-6.36" orient="auto"
				markerUnits="strokeWidth" overflow="visible">
			<use xlink:href="#lend13" transform="scale(-2.12,-2.12) "/>
		</marker>
	</defs>
	<g v:mID="0" v:index="1" v:groupContext="foregroundPage">
		<title>页-1</title>
		<v:pageProperties v:drawingScale="0.0393701" v:pageScale="0.0393701" v:drawingUnits="24" v:shadowOffsetX="8.50394"
				v:shadowOffsetY="-8.50394"/>
		<v:layer v:name="连接线" v:index="0"/>
		<v:layer v:name="常用图标" v:index="1"/>
		<g id="group1180-1" transform="translate(33.5596,-107.592)" v:mID="1180" v:groupContext="group">
			<v:custProps>
				<v:cp v:nameU="Manufacturer" v:lbl="制造商" v:type="0" v:sortKey="Equipment" v:invis="false" v:ask="false"
						v:langID="2052"/>
				<v:cp v:nameU="ProductNumber" v:lbl="产品编号" v:type="0" v:sortKey="Equipment" v:invis="false" v:ask="false"
						v:langID="2052"/>
				<v:cp v:nameU="PartNumber" v:lbl="部件号" v:type="0" v:sortKey="Equipment" v:invis="false" v:ask="false"
						v:langID="2052"/>
				<v:cp v:nameU="ProductDescription" v:lbl="产品说明" v:type="0" v:sortKey="Equipment" v:invis="false" v:ask="false"
						v:langID="2052"/>
				<v:cp v:nameU="AssetNumber" v:lbl="资产号" v:type="0" v:sortKey="Asset" v:invis="false" v:ask="false" v:langID="2052"/>
				<v:cp v:nameU="SerialNumber" v:lbl="序列号" v:type="0" v:sortKey="Asset" v:invis="false" v:ask="false" v:langID="2052"/>
				<v:cp v:nameU="Location" v:lbl="位置" v:type="0" v:sortKey="Asset" v:invis="false" v:ask="false" v:langID="2052"/>
				<v:cp v:nameU="Building" v:lbl="建筑物" v:type="0" v:sortKey="Asset" v:invis="false" v:ask="false" v:langID="2052"/>
				<v:cp v:nameU="Room" v:lbl="房间" v:type="0" v:sortKey="Asset" v:invis="false" v:ask="false" v:langID="2052"/>
				<v:cp v:nameU="Department" v:lbl="部门" v:type="0" v:invis="false" v:ask="false" v:langID="2052"/>
				<v:cp v:nameU="NetworkName" v:lbl="网络名称" v:type="0" v:sortKey="Network" v:invis="false" v:ask="false"
						v:langID="2052"/>
				<v:cp v:nameU="IPAddress" v:lbl="IP 地址" v:type="0" v:sortKey="Network" v:invis="false" v:ask="false"
						v:langID="2052"/>
				<v:cp v:nameU="SubnetMask" v:lbl="子网掩码" v:type="0" v:sortKey="Network" v:invis="false" v:ask="false"
						v:langID="2052"/>
				<v:cp v:nameU="AdminInterface" v:lbl="管理接口" v:type="0" v:sortKey="Network" v:invis="false" v:ask="false"
						v:langID="2052"/>
				<v:cp v:nameU="NumberofPorts" v:lbl="端口数目" v:type="0" v:sortKey="Network" v:invis="false" v:ask="false"
						v:langID="2052"/>
				<v:cp v:nameU="CommunityString" v:lbl="团体字符串" v:type="0" v:sortKey="Network" v:invis="false" v:ask="false"
						v:langID="2052"/>
				<v:cp v:nameU="NetworkDescription" v:lbl="网络说明" v:type="0" v:sortKey="Network" v:invis="false" v:ask="false"
						v:langID="2052"/>
				<v:cp v:nameU="CPU" v:lbl="CPU" v:type="0" v:sortKey="Workstation" v:invis="false" v:ask="false" v:langID="2052"/>
				<v:cp v:nameU="Memory" v:lbl="内存" v:type="0" v:sortKey="Workstation" v:invis="false" v:ask="false" v:langID="2052"/>
				<v:cp v:nameU="OperatingSystem" v:lbl="操作系统" v:type="0" v:sortKey="Workstation" v:invis="false" v:ask="false"
						v:langID="2052"/>
				<v:cp v:nameU="BelongsTo" v:lbl="属于" v:type="0" v:invis="true" v:ask="false" v:langID="2052"/>
				<v:cp v:nameU="ShapeClass" v:lbl="ShapeClass" v:type="0" v:invis="true" v:ask="false" v:langID="2052"
						v:val="VT4(设备)"/>
				<v:cp v:nameU="ShapeType" v:lbl="ShapeType" v:type="0" v:invis="true" v:ask="false" v:langID="2052"
						v:val="VT4(服务器)"/>
				<v:cp v:nameU="MACAddress" v:lbl="MAC 地址" v:type="0" v:sortKey="Network" v:invis="false" v:ask="false"
						v:langID="2052"/>
				<v:cp v:nameU="HardDriveSize" v:lbl="硬盘容量" v:type="0" v:sortKey="Workstation" v:invis="false" v:ask="false"
						v:langID="2052"/>
			</v:custProps>
			<v:userDefs>
				<v:ud v:nameU="HasText" v:val="VT0(0):5"/>
				<v:ud v:nameU="SolSH" v:val="VT15({BF0433D9-CD73-4EB5-8390-8653BE590246}):41"/>
				<v:ud v:nameU="ShapeClass" v:val="VT0(5):26"/>
				<v:ud v:nameU="ShapeType" v:val="VT0(24):26"/>
				<v:ud v:nameU="visLegendShape" v:val="VT0(2):26"/>
				<v:ud v:nameU="visVersion" v:prompt="" v:val="VT0(15):26"/>
			</v:userDefs>
			<title>服务器.34</title>
			<g id="shape1181-2" v:mID="1181" v:groupContext="shape">
				<title>工作表.1181</title>
				<path d="M62.78 190.34 L38.63 177.41 L0 198.46 L0.01 252.52 A40.6495 37.9612 -180 0 0 23.84 264.6 L62.78 243.56 L62.78
							 190.34 ZM10.72 206.88 A41.9511 39.1768 -180 0 0 23.84 211.54 A41.4826 38.7392 0 0 1 10.72 206.88 Z"
						class="st1"/>
			</g>
			<g id="shape1182-4" v:mID="1182" v:groupContext="shape" transform="translate(0,-53.0677)">
				<title>工作表.1182</title>
				<path d="M23.82 264.6 L62.78 243.41 L38.63 230.48 L0 251.52 A41.9511 39.1768 -180 0 0 23.84 264.6 L23.82 264.6 Z"
						class="st2"/>
				<path d="M23.82 264.6 L62.78 243.41 L38.63 230.48 L0 251.52 A41.9511 39.1768 -180 0 0 23.84 264.6" class="st3"/>
			</g>
			<g id="shape1183-9" v:mID="1183" v:groupContext="shape" transform="translate(0.0142653,-3.97904E-13)">
				<title>工作表.1183</title>
				<path d="M23.83 211.54 A41.4826 38.7392 0 0 1 0 198.4 L0 252.52 A40.6495 37.9612 -180 0 0 23.83 264.6 L23.81 211.54
							 L23.83 211.54 Z" class="st4"/>
				<path d="M23.83 211.54 A41.4826 38.7392 0 0 1 0 198.4 L0 252.52 A40.6495 37.9612 -180 0 0 23.83 264.6 L23.81 211.54"
						class="st3"/>
			</g>
			<g id="shape1184-16" v:mID="1184" v:groupContext="shape" transform="translate(23.8245,-0.0599781)">
				<title>工作表.1184</title>
				<path d="M0 211.6 L0 264.6 L38.96 243.62 L38.96 190.4 L0 211.6 Z" class="st5"/>
			</g>
			<g id="shape1185-22" v:mID="1185" v:groupContext="shape" transform="translate(0,-0.00192209)">
				<title>工作表.1185</title>
				<path d="M62.78 190.34 L38.63 177.41 L0 198.46 L0.01 252.52 A40.6495 37.9612 -180 0 0 23.84 264.6 L62.78 243.56 L62.78
							 190.34" class="st6"/>
			</g>
			<g id="shape1186-25" v:mID="1186" v:groupContext="shape" transform="translate(-80.4011,-12.0731) rotate(-20)">
				<title>工作表.1186</title>
				<ellipse cx="1.82361" cy="262.121" rx="1.82361" ry="2.48319" class="st7"/>
			</g>
			<g id="shape1187-31" v:mID="1187" v:groupContext="shape" transform="translate(3.86344,-7.66879)">
				<title>工作表.1187</title>
				<path d="M0 249.87 A46.5353 42.5022 -96.44 0 0 16.1 258.14" class="st8"/>
				<path d="M0 253.1 A46.5353 42.5022 -96.44 0 0 16.1 261.37" class="st8"/>
				<path d="M0 256.34 A46.5353 42.5022 -96.44 0 0 16.1 264.6" class="st8"/>
			</g>
			<g id="group1188-38" transform="translate(3.21953,-37.5846)" v:mID="1188" v:groupContext="group">
				<title>工作表.1188</title>
				<g id="shape1189-39" v:mID="1189" v:groupContext="shape" transform="translate(0,-8.69864)">
					<title>工作表.1189</title>
					<path d="M0.57 256.34 A40.6018 37.9167 -180 0 0 16.67 264.6 a0.825005 0.770445 -180 0 0 3.55271E-15 -1.50331
								 A39.4971 36.885 0 0 1 0.9 255.07 a0.534482 0.499135 -180 0 0 -0.892309 0.424323 A1.16488 1.08784
								 -180 0 0 0.57 256.34 Z" class="st9"/>
				</g>
				<g id="shape1190-41" v:mID="1190" v:groupContext="shape" transform="translate(5.11958,-10.5935)">
					<title>工作表.1190</title>
					<path d="M4.95 264.54 A6.03289 3.67259 -90.9 0 0 0.12 262.14 A3.96934 1.97898 -180 0 0 4.95 264.54 Z"
							class="st10"/>
				</g>
				<g id="shape1191-46" v:mID="1191" v:groupContext="shape" transform="translate(0.643906,-0.0751653)">
					<title>工作表.1191</title>
					<path d="M0 252.13 L0 256.34 A43.6752 40.7869 -180 0 0 16.1 264.6 L16.1 260.39 A45.1046 42.1217 0 0 1 0 252.13
								 Z" class="st11"/>
				</g>
				<g id="shape1192-54" v:mID="1192" v:groupContext="shape" transform="translate(0.643906,-2.40529)">
					<title>工作表.1192</title>
					<path d="M-0 256.34 A39.531 36.9167 -180 0 0 16.1 264.6 L16.1 263.55 A43.6928 40.8033 0 0 1 0 255.28 L0 256.34
								 Z" class="st12"/>
				</g>
				<g id="shape1193-56" v:mID="1193" v:groupContext="shape" transform="translate(0.643906,-0.150331)">
					<title>工作表.1193</title>
					<path d="M0 252.13 L0 256.34 A43.6752 40.7869 -180 0 0 16.1 264.6" class="st3"/>
				</g>
				<g id="shape1194-59" v:mID="1194" v:groupContext="shape" transform="translate(0.643906,1.13687E-13)">
					<title>工作表.1194</title>
					<path d="M16.1 264.6 L16.1 260.39 A45.1046 42.1217 0 0 1 0 252.13" class="st13"/>
				</g>
			</g>
		</g>
		<g id="group1195-63" transform="translate(65.5051,-85.5658)" v:mID="1195" v:groupContext="group">
			<v:custProps>
				<v:cp v:nameU="Manufacturer" v:lbl="制造商" v:type="0" v:sortKey="Equipment" v:invis="false" v:ask="false"
						v:langID="2052"/>
				<v:cp v:nameU="ProductNumber" v:lbl="产品编号" v:type="0" v:sortKey="Equipment" v:invis="false" v:ask="false"
						v:langID="2052"/>
				<v:cp v:nameU="PartNumber" v:lbl="部件号" v:type="0" v:sortKey="Equipment" v:invis="false" v:ask="false"
						v:langID="2052"/>
				<v:cp v:nameU="ProductDescription" v:lbl="产品说明" v:type="0" v:sortKey="Equipment" v:invis="false" v:ask="false"
						v:langID="2052"/>
				<v:cp v:nameU="AssetNumber" v:lbl="资产号" v:type="0" v:sortKey="Asset" v:invis="false" v:ask="false" v:langID="2052"/>
				<v:cp v:nameU="SerialNumber" v:lbl="序列号" v:type="0" v:sortKey="Asset" v:invis="false" v:ask="false" v:langID="2052"/>
				<v:cp v:nameU="Location" v:lbl="位置" v:type="0" v:sortKey="Asset" v:invis="false" v:ask="false" v:langID="2052"/>
				<v:cp v:nameU="Building" v:lbl="建筑物" v:type="0" v:sortKey="Asset" v:invis="false" v:ask="false" v:langID="2052"/>
				<v:cp v:nameU="Room" v:lbl="房间" v:type="0" v:sortKey="Asset" v:invis="false" v:ask="false" v:langID="2052"/>
				<v:cp v:nameU="Department" v:lbl="部门" v:type="0" v:invis="false" v:ask="false" v:langID="2052"/>
				<v:cp v:nameU="NetworkName" v:lbl="网络名称" v:type="0" v:sortKey="Network" v:invis="false" v:ask="false"
						v:langID="2052"/>
				<v:cp v:nameU="IPAddress" v:lbl="IP 地址" v:type="0" v:sortKey="Network" v:invis="false" v:ask="false"
						v:langID="2052"/>
				<v:cp v:nameU="SubnetMask" v:lbl="子网掩码" v:type="0" v:sortKey="Network" v:invis="false" v:ask="false"
						v:langID="2052"/>
				<v:cp v:nameU="AdminInterface" v:lbl="管理接口" v:type="0" v:sortKey="Network" v:invis="false" v:ask="false"
						v:langID="2052"/>
				<v:cp v:nameU="NumberofPorts" v:lbl="端口数目" v:type="0" v:sortKey="Network" v:invis="false" v:ask="false"
						v:langID="2052"/>
				<v:cp v:nameU="CommunityString" v:lbl="团体字符串" v:type="0" v:sortKey="Network" v:invis="false" v:ask="false"
						v:langID="2052"/>
				<v:cp v:nameU="NetworkDescription" v:lbl="网络说明" v:type="0" v:sortKey="Network" v:invis="false" v:ask="false"
						v:langID="2052"/>
				<v:cp v:nameU="CPU" v:lbl="CPU" v:type="0" v:sortKey="Workstation" v:invis="false" v:ask="false" v:langID="2052"/>
				<v:cp v:nameU="Memory" v:lbl="内存" v:type="0" v:sortKey="Workstation" v:invis="false" v:ask="false" v:langID="2052"/>
				<v:cp v:nameU="OperatingSystem" v:lbl="操作系统" v:type="0" v:sortKey="Workstation" v:invis="false" v:ask="false"
						v:langID="2052"/>
				<v:cp v:nameU="BelongsTo" v:lbl="属于" v:type="0" v:invis="true" v:ask="false" v:langID="2052"/>
				<v:cp v:nameU="ShapeClass" v:lbl="ShapeClass" v:type="0" v:invis="true" v:ask="false" v:langID="2052"
						v:val="VT4(设备)"/>
				<v:cp v:nameU="ShapeType" v:lbl="ShapeType" v:type="0" v:invis="true" v:ask="false" v:langID="2052"
						v:val="VT4(服务器)"/>
				<v:cp v:nameU="MACAddress" v:lbl="MAC 地址" v:type="0" v:sortKey="Network" v:invis="false" v:ask="false"
						v:langID="2052"/>
				<v:cp v:nameU="HardDriveSize" v:lbl="硬盘容量" v:type="0" v:sortKey="Workstation" v:invis="false" v:ask="false"
						v:langID="2052"/>
			</v:custProps>
			<v:userDefs>
				<v:ud v:nameU="HasText" v:val="VT0(0):5"/>
				<v:ud v:nameU="SolSH" v:val="VT15({BF0433D9-CD73-4EB5-8390-8653BE590246}):41"/>
				<v:ud v:nameU="ShapeClass" v:val="VT0(5):26"/>
				<v:ud v:nameU="ShapeType" v:val="VT0(24):26"/>
				<v:ud v:nameU="visLegendShape" v:val="VT0(2):26"/>
				<v:ud v:nameU="visVersion" v:prompt="" v:val="VT0(15):26"/>
			</v:userDefs>
			<title>服务器.820</title>
			<g id="shape1196-64" v:mID="1196" v:groupContext="shape">
				<title>工作表.1196</title>
				<path d="M62.78 190.34 L38.63 177.41 L0 198.46 L0.01 252.52 A40.6495 37.9612 -180 0 0 23.84 264.6 L62.78 243.56 L62.78
							 190.34 ZM10.72 206.88 A41.9511 39.1768 -180 0 0 23.84 211.54 A41.4826 38.7392 0 0 1 10.72 206.88 Z"
						class="st1"/>
			</g>
			<g id="shape1197-66" v:mID="1197" v:groupContext="shape" transform="translate(0,-53.0677)">
				<title>工作表.1197</title>
				<path d="M23.82 264.6 L62.78 243.41 L38.63 230.48 L0 251.52 A41.9511 39.1768 -180 0 0 23.84 264.6 L23.82 264.6 Z"
						class="st2"/>
				<path d="M23.82 264.6 L62.78 243.41 L38.63 230.48 L0 251.52 A41.9511 39.1768 -180 0 0 23.84 264.6" class="st3"/>
			</g>
			<g id="shape1198-70" v:mID="1198" v:groupContext="shape" transform="translate(0.0142653,-3.97904E-13)">
				<title>工作表.1198</title>
				<path d="M23.83 211.54 A41.4826 38.7392 0 0 1 -0 198.4 L0 252.52 A40.6495 37.9612 -180 0 0 23.83 264.6 L23.81 211.54
							 L23.83 211.54 Z" class="st4"/>
				<path d="M23.83 211.54 A41.4826 38.7392 0 0 1 -0 198.4 L0 252.52 A40.6495 37.9612 -180 0 0 23.83 264.6 L23.81 211.54"
						class="st3"/>
			</g>
			<g id="shape1199-74" v:mID="1199" v:groupContext="shape" transform="translate(23.8245,-0.0599781)">
				<title>工作表.1199</title>
				<path d="M0 211.6 L0 264.6 L38.96 243.62 L38.96 190.4 L0 211.6 Z" class="st5"/>
			</g>
			<g id="shape1200-77" v:mID="1200" v:groupContext="shape" transform="translate(0,-0.00192209)">
				<title>工作表.1200</title>
				<path d="M62.78 190.34 L38.63 177.41 L0 198.46 L0.01 252.52 A40.6495 37.9612 -180 0 0 23.84 264.6 L62.78 243.56 L62.78
							 190.34" class="st6"/>
			</g>
			<g id="shape1201-80" v:mID="1201" v:groupContext="shape" transform="translate(-80.4011,-12.0731) rotate(-20)">
				<title>工作表.1201</title>
				<ellipse cx="1.82361" cy="262.121" rx="1.82361" ry="2.48319" class="st7"/>
			</g>
			<g id="shape1202-83" v:mID="1202" v:groupContext="shape" transform="translate(3.86344,-7.66879)">
				<title>工作表.1202</title>
				<path d="M0 249.87 A46.5353 42.5022 -96.44 0 0 16.1 258.14" class="st8"/>
				<path d="M0 253.1 A46.5353 42.5022 -96.44 0 0 16.1 261.37" class="st8"/>
				<path d="M0 256.34 A46.5353 42.5022 -96.44 0 0 16.1 264.6" class="st8"/>
			</g>
			<g id="group1203-89" transform="translate(3.21953,-37.5846)" v:mID="1203" v:groupContext="group">
				<title>工作表.1203</title>
				<g id="shape1204-90" v:mID="1204" v:groupContext="shape" transform="translate(0,-8.69864)">
					<title>工作表.1204</title>
					<path d="M0.57 256.34 A40.6018 37.9167 -180 0 0 16.67 264.6 a0.825005 0.770445 -180 0 0 -3.55271E-15 -1.50331
								 A39.4971 36.885 0 0 1 0.9 255.07 a0.534482 0.499135 -180 0 0 -0.892309 0.424323 A1.16488 1.08784
								 -180 0 0 0.57 256.34 Z" class="st9"/>
				</g>
				<g id="shape1205-92" v:mID="1205" v:groupContext="shape" transform="translate(5.11958,-10.5935)">
					<title>工作表.1205</title>
					<path d="M4.95 264.54 A6.03289 3.67259 -90.9 0 0 0.12 262.14 A3.96934 1.97898 -180 0 0 4.95 264.54 Z"
							class="st10"/>
				</g>
				<g id="shape1206-95" v:mID="1206" v:groupContext="shape" transform="translate(0.643906,-0.0751653)">
					<title>工作表.1206</title>
					<path d="M0 252.13 L0 256.34 A43.6752 40.7869 -180 0 0 16.1 264.6 L16.1 260.39 A45.1046 42.1217 0 0 1 0 252.13
								 Z" class="st11"/>
				</g>
				<g id="shape1207-98" v:mID="1207" v:groupContext="shape" transform="translate(0.643906,-2.40529)">
					<title>工作表.1207</title>
					<path d="M-0 256.34 A39.531 36.9167 -180 0 0 16.1 264.6 L16.1 263.55 A43.6928 40.8033 0 0 1 -0 255.28 L0 256.34
								 Z" class="st12"/>
				</g>
				<g id="shape1208-100" v:mID="1208" v:groupContext="shape" transform="translate(0.643906,-0.150331)">
					<title>工作表.1208</title>
					<path d="M0 252.13 L0 256.34 A43.6752 40.7869 -180 0 0 16.1 264.6" class="st3"/>
				</g>
				<g id="shape1209-103" v:mID="1209" v:groupContext="shape" transform="translate(0.643906,1.13687E-13)">
					<title>工作表.1209</title>
					<path d="M16.1 264.6 L16.1 260.39 A45.1046 42.1217 0 0 1 0 252.13" class="st13"/>
				</g>
			</g>
		</g>
		<g id="shape1210-107" v:mID="1210" v:groupContext="shape" transform="translate(127.872,-92.5769)">
			<title>工作表.1210</title>
			<desc>执行安全子协议</desc>
			<v:textBlock v:margins="rect(4,4,4,4)" v:tabSpace="42.5197"/>
			<v:textRect cx="89.9855" cy="228.017" width="179.98" height="73.1734"/>
			<rect x="0" y="191.43" width="179.971" height="73.1734" class="st14"/>
			<text x="17.7" y="215.03" class="st15" v:langID="2052"><v:paragraph v:horizAlign="1"/><v:tabList/>执行安全<tspan x="35.77"
						dy="1.291em" class="st16">子协议</tspan></text>		</g>
		<g id="shape1211-111" v:mID="1211" v:groupContext="shape" v:layerMember="0" transform="translate(67.2312,-2.83465)">
			<title>动态连接线.846</title>
			<path d="M7.09 250.65 L7.09 250.29 L7.09 206.9" class="st17"/>
		</g>
		<g id="group1212-117" transform="translate(41.0601,-53.8556)" v:mID="1212" v:groupContext="group">
			<v:userDefs>
				<v:ud v:nameU="SkinColor" v:prompt="" v:val="VT5(#da8c36)"/>
				<v:ud v:nameU="visVersion" v:prompt="" v:val="VT0(15):26"/>
			</v:userDefs>
			<title>人 - 半身.955</title>
			<g id="shape1213-118" v:mID="1213" v:groupContext="shape" transform="translate(4.67805,-12.361)">
				<title>工作表.1213</title>
				<path d="M3.38 225.85 L3.12 225.99 A6.31891 6.31891 -180 0 0 0.76 231.03 L0.46 237.79 L0.24 242.67 L0 248.07 A4.56719
							 4.56719 -180 0 0 4.56 252.7 A20.7743 20.7743 -180 0 0 13.47 259.48 A161.812 161.812 -180 0 0 20.93 261.91
							 A8.34403 8.34403 -180 0 0 27.99 264.54 A11.4456 11.4261 -180 0 0 33.12 262.62 A5.73886 5.72911 -180
							 0 0 36.3 258.22 A296.485 295.981 -180 0 0 35.72 246.53 A591.583 590.579 -180 0 0 35.38 241.65 A27.1658
							 27.1196 -180 0 0 34.55 235.9 A22.0109 21.9735 -180 0 0 23.41 223.36 L23.39 221.38 A13.0748 13.0748 -180
							 0 0 27.75 211.47 A11.4312 11.4312 -180 0 0 17.57 199.39 A11.287 11.287 -180 0 0 7.4 211.47 A12.5632
							 12.5632 -180 0 0 11.57 221.27 L3.59 225.73 L3.38 225.85 Z" class="st19"/>
			</g>
			<g id="shape1214-120" v:mID="1214" v:groupContext="shape" transform="translate(5.09429,-13.7404)">
				<title>工作表.1214</title>
				<path d="M0.46 237.79 L0.76 231.03 A7.69349 7.69349 0 0 1 14.15 226.71 A25.9318 25.9318 0 0 1 26.97 256.35 L27.99
							 264.54 A8.34403 8.34403 0 0 1 20.93 261.91 A161.812 161.812 0 0 1 13.47 259.48 A20.7743 20.7743 0 0
							 1 4.56 252.7 A4.56719 4.56719 0 0 1 0 248.07 L0.24 242.67 L0.46 237.79 Z" class="st20"/>
			</g>
			<g id="shape1215-124" v:mID="1215" v:groupContext="shape" transform="translate(8.22192,-37.6942)">
				<title>工作表.1215</title>
				<path d="M22.02 264.6 L31.42 259.86 A22.0109 21.9735 -180 0 0 8.48 245.19 L0 249.94 A21.6312 21.5944 0 0 1 22.02
							 264.6 Z" class="st21"/>
			</g>
			<g id="shape1216-128" v:mID="1216" v:groupContext="shape" transform="translate(30.2439,-13.8277)">
				<title>工作表.1216</title>
				<path d="M0 240.74 A7.66041 7.64741 0 0 1 9.4 235.99 A27.1658 27.1196 0 0 1 10.24 241.73 A591.583 590.579 0 0 1 10.57
							 246.61 A296.485 295.981 0 0 1 11.15 258.3 A5.73886 5.72911 0 0 1 7.97 262.7 A10.4661 10.4483 0 0 1 1.39
							 264.59 L0 240.74 Z" class="st22"/>
			</g>
			<g id="shape1217-136" v:mID="1217" v:groupContext="shape" transform="translate(17.178,-51.5407)">
				<title>工作表.1217</title>
				<path d="M0.28 259.33 L0.32 261.85 A4.05344 4.05344 -180 0 0 5.09 264.06 A10.4478 10.4478 -180 0 0 11.35 263.2 L11.3
							 258.46 A9.4434 9.4434 0 0 1 0.46 259.23 L0.28 259.33 Z" class="st23"/>
				<path d="M0.28 259.33 L0.32 261.85 A4.05344 4.05344 -180 0 0 5.09 264.06 A10.4478 10.4478 -180 0 0 11.35 263.2 L11.3
							 258.46 A9.4434 9.4434 0 0 1 0.46 259.23" class="st24"/>
			</g>
			<g id="shape1218-141" v:mID="1218" v:groupContext="shape" transform="translate(12.4986,-54.9053)">
				<title>工作表.1218</title>
				<path d="M20.35 252.63 A11.007 11.007 0 0 1 10.17 264.6 A10.8795 10.8795 0 0 1 0 252.63 A11.287 11.287 0 0 1 10.17
							 240.55 A11.4312 11.4312 0 0 1 20.35 252.63 L-5.09 234.54 L20.35 252.63 Z" class="st25"/>
				<path d="M20.35 252.63 A11.007 11.007 0 0 1 10.17 264.6 A10.8795 10.8795 0 0 1 0 252.63 A11.287 11.287 0 0 1 10.17
							 240.55 A11.4312 11.4312 0 0 1 20.35 252.63" class="st26"/>
			</g>
			<g id="shape1219-146" v:mID="1219" v:groupContext="shape" transform="translate(9.79087,-16.756)">
				<title>工作表.1219</title>
				<path d="M0 255.4 L0 240.61 L0 255.4 ZM16.27 264.6 L16.27 249.82 L16.27 264.6 Z" class="st27"/>
				<path d="M0 255.4 L0 240.61M16.27 264.6 L16.27 249.82" class="st28"/>
			</g>
			<g id="shape1220-149" v:mID="1220" v:groupContext="shape" transform="translate(5.09249,-13.7567)">
				<title>工作表.1220</title>
				<path d="M31.36 263.57 A7.1553 7.1553 -180 0 0 36.3 258.23 A398.255 398.255 -180 0 0 35.24 239.76 A20.4637 20.4637
							 -180 0 0 27.54 225.99 A12.9634 12.9634 -180 0 0 23.47 223.4 L23.39 221.41 A13.1444 13.1444 -180 0 0
							 27.75 211.48 A11.3149 11.3149 -180 0 0 17.58 199.4 A11.3143 11.3143 -180 0 0 7.41 211.48 A12.9125 12.9125
							 -180 0 0 11.61 221.25 L3.13 226 A6.35058 6.35058 -180 0 0 0.76 231.04 L0 248.09 A4.07804 4.07804 -180
							 0 0 0.76 250.77 A5.06059 5.06059 -180 0 0 4.56 252.72 A27.1275 27.1275 -180 0 0 20.94 261.93 A8.61559
							 8.61559 -180 0 0 31.36 263.57 Z" class="st29"/>
			</g>
		</g>
		<g id="shape1221-151" v:mID="1221" v:groupContext="shape" v:layerMember="0" transform="translate(78.5698,-199.63)">
			<title>动态连接线.1179</title>
			<path d="M-7.09 264.6 L-7.09 220.59" class="st30"/>
		</g>
		<g id="group1222-157" transform="translate(12.1261,-67.3184)" v:mID="1222" v:groupContext="group">
			<v:userDefs>
				<v:ud v:nameU="SkinColor" v:prompt="" v:val="VT5(#da8c36)"/>
				<v:ud v:nameU="visVersion" v:prompt="" v:val="VT0(15):26"/>
			</v:userDefs>
			<title>人 - 半身.1222</title>
			<g id="shape1223-158" v:mID="1223" v:groupContext="shape" transform="translate(4.67805,-12.361)">
				<title>工作表.1223</title>
				<path d="M3.38 225.85 L3.12 225.99 A6.31891 6.31891 -180 0 0 0.76 231.03 L0.46 237.79 L0.24 242.67 L0 248.07 A4.56719
							 4.56719 -180 0 0 4.56 252.7 A20.7743 20.7743 -180 0 0 13.47 259.48 A161.812 161.812 -180 0 0 20.93 261.91
							 A8.34403 8.34403 -180 0 0 27.99 264.54 A11.4456 11.4261 -180 0 0 33.12 262.62 A5.73886 5.72911 -180
							 0 0 36.3 258.22 A296.485 295.981 -180 0 0 35.72 246.53 A591.583 590.579 -180 0 0 35.38 241.65 A27.1658
							 27.1196 -180 0 0 34.55 235.9 A22.0109 21.9735 -180 0 0 23.41 223.36 L23.39 221.38 A13.0748 13.0748 -180
							 0 0 27.75 211.47 A11.4312 11.4312 -180 0 0 17.57 199.39 A11.287 11.287 -180 0 0 7.4 211.47 A12.5632
							 12.5632 -180 0 0 11.57 221.27 L3.59 225.73 L3.38 225.85 Z" class="st19"/>
			</g>
			<g id="shape1224-160" v:mID="1224" v:groupContext="shape" transform="translate(5.09429,-13.7404)">
				<title>工作表.1224</title>
				<path d="M0.46 237.79 L0.76 231.03 A7.69349 7.69349 0 0 1 14.15 226.71 A25.9318 25.9318 0 0 1 26.97 256.35 L27.99
							 264.54 A8.34403 8.34403 0 0 1 20.93 261.91 A161.812 161.812 0 0 1 13.47 259.48 A20.7743 20.7743 0 0
							 1 4.56 252.7 A4.56719 4.56719 0 0 1 0 248.07 L0.24 242.67 L0.46 237.79 Z" class="st20"/>
			</g>
			<g id="shape1225-163" v:mID="1225" v:groupContext="shape" transform="translate(8.22192,-37.6942)">
				<title>工作表.1225</title>
				<path d="M22.02 264.6 L31.42 259.86 A22.0109 21.9735 -180 0 0 8.48 245.19 L0 249.94 A21.6312 21.5944 0 0 1 22.02
							 264.6 Z" class="st21"/>
			</g>
			<g id="shape1226-166" v:mID="1226" v:groupContext="shape" transform="translate(30.2439,-13.8277)">
				<title>工作表.1226</title>
				<path d="M0 240.74 A7.66041 7.64741 0 0 1 9.4 235.99 A27.1658 27.1196 0 0 1 10.24 241.73 A591.583 590.579 0 0 1 10.57
							 246.61 A296.485 295.981 0 0 1 11.15 258.3 A5.73886 5.72911 0 0 1 7.97 262.7 A10.4661 10.4483 0 0 1 1.39
							 264.59 L0 240.74 Z" class="st22"/>
			</g>
			<g id="shape1227-169" v:mID="1227" v:groupContext="shape" transform="translate(17.178,-51.5407)">
				<title>工作表.1227</title>
				<path d="M0.28 259.33 L0.32 261.85 A4.05344 4.05344 -180 0 0 5.09 264.06 A10.4478 10.4478 -180 0 0 11.35 263.2 L11.3
							 258.46 A9.4434 9.4434 0 0 1 0.46 259.23 L0.28 259.33 Z" class="st23"/>
				<path d="M0.28 259.33 L0.32 261.85 A4.05344 4.05344 -180 0 0 5.09 264.06 A10.4478 10.4478 -180 0 0 11.35 263.2 L11.3
							 258.46 A9.4434 9.4434 0 0 1 0.46 259.23" class="st24"/>
			</g>
			<g id="shape1228-173" v:mID="1228" v:groupContext="shape" transform="translate(12.4986,-54.9053)">
				<title>工作表.1228</title>
				<path d="M20.35 252.63 A11.007 11.007 0 0 1 10.17 264.6 A10.8795 10.8795 0 0 1 0 252.63 A11.287 11.287 0 0 1 10.17
							 240.55 A11.4312 11.4312 0 0 1 20.35 252.63 L-5.09 234.54 L20.35 252.63 Z" class="st25"/>
				<path d="M20.35 252.63 A11.007 11.007 0 0 1 10.17 264.6 A10.8795 10.8795 0 0 1 0 252.63 A11.287 11.287 0 0 1 10.17
							 240.55 A11.4312 11.4312 0 0 1 20.35 252.63" class="st26"/>
			</g>
			<g id="shape1229-177" v:mID="1229" v:groupContext="shape" transform="translate(9.79087,-16.756)">
				<title>工作表.1229</title>
				<path d="M0 255.4 L0 240.61 L0 255.4 ZM16.27 264.6 L16.27 249.82 L16.27 264.6 Z" class="st27"/>
				<path d="M0 255.4 L0 240.61M16.27 264.6 L16.27 249.82" class="st28"/>
			</g>
			<g id="shape1230-180" v:mID="1230" v:groupContext="shape" transform="translate(5.09249,-13.7567)">
				<title>工作表.1230</title>
				<path d="M31.36 263.57 A7.1553 7.1553 -180 0 0 36.3 258.23 A398.255 398.255 -180 0 0 35.24 239.76 A20.4637 20.4637
							 -180 0 0 27.54 225.99 A12.9634 12.9634 -180 0 0 23.47 223.4 L23.39 221.41 A13.1444 13.1444 -180 0 0
							 27.75 211.48 A11.3149 11.3149 -180 0 0 17.58 199.4 A11.3143 11.3143 -180 0 0 7.41 211.48 A12.9125 12.9125
							 -180 0 0 11.61 221.25 L3.13 226 A6.35058 6.35058 -180 0 0 0.76 231.04 L0 248.09 A4.07804 4.07804 -180
							 0 0 0.76 250.77 A5.06059 5.06059 -180 0 0 4.56 252.72 A27.1275 27.1275 -180 0 0 20.94 261.93 A8.61559
							 8.61559 -180 0 0 31.36 263.57 Z" class="st29"/>
			</g>
		</g>
	</g>
</svg>
